<?xml version="1.0" encoding="UTF-8" standalone="no"?>
<!-- Created with Inkscape (http://www.inkscape.org/) -->

<svg
   width="647.13159"
   height="128.05499"
   viewBox="0 0 647.13159 128.05499"
   version="1.1"
   id="svg1"
   xml:space="preserve"
   inkscape:version="1.3.2 (091e20e, 2023-11-25, custom)"
   sodipodi:docname="SCRIPTO.svg"
   xmlns:inkscape="http://www.inkscape.org/namespaces/inkscape"
   xmlns:sodipodi="http://sodipodi.sourceforge.net/DTD/sodipodi-0.dtd"
   xmlns:xlink="http://www.w3.org/1999/xlink"
   xmlns="http://www.w3.org/2000/svg"
   xmlns:svg="http://www.w3.org/2000/svg"><sodipodi:namedview
     id="namedview1"
     pagecolor="#505050"
     bordercolor="#ffffff"
     borderopacity="1"
     inkscape:showpageshadow="0"
     inkscape:pageopacity="0"
     inkscape:pagecheckerboard="1"
     inkscape:deskcolor="#505050"
     inkscape:document-units="px"
     showguides="true"
     inkscape:zoom="1.4280242"
     inkscape:cx="1102.2222"
     inkscape:cy="349.08371"
     inkscape:current-layer="layer2" /><defs
     id="defs1"><linearGradient
       id="linearGradient5"
       inkscape:collect="always"><stop
         style="stop-color:#008080;stop-opacity:1;"
         offset="0.1980198"
         id="stop5" /><stop
         style="stop-color:#ffff00;stop-opacity:1;"
         offset="1"
         id="stop6" /></linearGradient><linearGradient
       inkscape:collect="always"
       xlink:href="#linearGradient5"
       id="linearGradient6"
       x1="712.24951"
       y1="300.73718"
       x2="1205.9149"
       y2="300.73718"
       gradientUnits="userSpaceOnUse" /></defs><g
     inkscape:label="Layer 1"
     inkscape:groupmode="layer"
     id="layer1"
     style="display:none"
     transform="translate(-712.24951,-220.68207)"><rect
       style="fill:#ffffff;fill-rule:evenodd;stroke-width:1"
       id="rect2"
       width="2227.2468"
       height="512"
       x="0"
       y="0.99032885"
       ry="0"
       rx="0"
       sodipodi:insensitive="true" /><text
       xml:space="preserve"
       style="font-style:normal;font-variant:normal;font-weight:600;font-stretch:normal;font-size:133.333px;line-height:1.25;font-family:Montserrat;-inkscape-font-specification:'Montserrat, Semi-Bold';font-variant-ligatures:none;font-variant-caps:normal;font-variant-numeric:normal;font-variant-east-asian:normal;letter-spacing:1px;fill:#008080;stroke-width:1"
       x="707.58289"
       y="347.40372"
       id="text3"><tspan
         sodipodi:role="line"
         id="tspan3"
         x="707.58289"
         y="347.40372"
         style="font-style:normal;font-variant:normal;font-weight:600;font-stretch:normal;font-size:133.333px;font-family:Montserrat;-inkscape-font-specification:'Montserrat, Semi-Bold';font-variant-ligatures:none;font-variant-caps:normal;font-variant-numeric:normal;font-variant-east-asian:normal;letter-spacing:1px;fill:#008080;stroke-width:1">SCRIPTIO</tspan></text><rect
       style="fill:#ffffff;fill-rule:evenodd"
       id="rect3"
       width="29.709866"
       height="105.96519"
       x="1213.1528"
       y="247.5822" /></g><g
     inkscape:groupmode="layer"
     id="layer2"
     inkscape:label="logo"
     transform="translate(-712.24951,-220.68207)"><g
       id="g6"
       transform="translate(2)"
       style="fill:#ffff00;fill-opacity:1"><path
         id="path4"
         style="display:inline;fill:#ffff00;fill-opacity:1;stroke:none;stroke-width:1px;stroke-linecap:butt;stroke-linejoin:miter;stroke-opacity:1"
         d="m 1336.4986,293.69727 c -3.5728,4.25515 -8.8335,8.37283 -15.9628,8.54814 -11.3655,0.27949 -15.1979,-5.0405 -26.5649,-4.82735 -5.86,0.10988 -12.0952,2.98315 -16.8563,5.82112 1.4179,15.85491 13.7289,26.98199 29.931,26.98199 17.2352,0 30.069,-12.59106 30.069,-30.07071 0,-2.23727 -0.2131,-4.39228 -0.616,-6.45319 z" /><path
         d="m 1307.1146,348.73705 c 28.9332,0 50.2665,-20.26662 50.2665,-47.99988 0,-27.73326 -21.3333,-47.99988 -50.2665,-47.99988 -28.9333,0 -50.2666,20.39995 -50.2666,47.99988 0,27.59993 21.3333,47.99988 50.2666,47.99988 z m 0,-15.19996 c -18.8,0 -32.7999,-13.7333 -32.7999,-32.79992 0,-19.06662 13.9999,-32.79992 32.7999,-32.79992 18.7999,0 32.7999,13.7333 32.7999,32.79992 0,19.06662 -14,32.79992 -32.7999,32.79992 z"
         id="path5"
         style="-inkscape-font-specification:'Montserrat, Semi-Bold';display:inline;fill:#ffff00;fill-opacity:1"
         aria-label="SCRIPTIO"
         sodipodi:nodetypes="ssssssssss" /></g><path
       style="display:inline;fill:#ffff00;fill-opacity:1;stroke-width:1"
       d="m 1230.5738,347.74927 -1.3174,-1.0363 v -14.9921 -14.9921 l 1.1113,0.7784 c 0.6112,0.4281 1.6861,0.7783 2.3887,0.7783 0.7027,0 1.7776,-0.3502 2.3887,-0.7783 l 1.1113,-0.7784 v 15.0089 15.0089 l -1.0943,1.0195 c -1.3957,1.3002 -2.921,1.2947 -4.5882,-0.017 z m -7.615,-37.5708 -5.5477,-5.7269 -1.4523,-2.9581 -1.4524,-2.958 v -23.5 -23.5 l 1.5674,-4.3806 c 5.3744,-15.0211 18.3338,-25.018 33.9326,-26.1759 l 4,-0.2969 1.125,1.0712 1.125,1.0712 v 1.3038 c 0,0.7171 -0.6735,3.4063 -1.4966,5.9761 -0.8233,2.5698 -1.87,6.643 -2.3262,9.0517 l -0.8296,4.3794 -0.2988,27.5 -0.2988,27.5 -1.4594,2.9725 -1.4595,2.9726 -5.6498,5.7774 -5.6497,5.7775 -0.016,-28.0924 -0.016,-28.0925 -0.5197,-1.3668 c -1.2927,-3.4001 -3.8892,-3.6029 -7.0912,-0.5538 -0.061,0.058 -0.2297,13.1263 -0.375,29.0405 l -0.2642,28.935 z"
       id="path3" /><path
       d="m 749.04945,348.73705 c 25.59993,0 37.73323,-12.79997 37.73323,-27.73327 0,-34.26657 -55.33319,-21.33327 -55.33319,-41.19989 0,-7.06665 5.86665,-12.66663 20.26662,-12.66663 8.13331,0 17.33329,2.39999 25.73326,7.33331 l 5.46666,-13.46663 c -8.13332,-5.33332 -19.86662,-8.26665 -31.06659,-8.26665 -25.59994,0 -37.5999,12.79997 -37.5999,27.8666 0,34.66658 55.46652,21.46661 55.46652,41.59989 0,6.93332 -6.13332,12.1333 -20.66661,12.1333 -11.46664,0 -23.33328,-4.26665 -30.79992,-10.26664 l -5.99999,13.46664 c 7.73331,6.66665 22.26661,11.19997 36.79991,11.19997 z m 99.13304,0 c 15.3333,0 28.39993,-5.46666 37.06658,-15.59996 l -11.19998,-10.66664 c -6.79998,7.46665 -15.19996,11.06664 -24.93327,11.06664 -19.33328,0 -33.33324,-13.59997 -33.33324,-32.79992 0,-19.19995 13.99996,-32.79992 33.33324,-32.79992 9.73331,0 18.13329,3.59999 24.93327,10.93331 l 11.19998,-10.53331 c -8.66665,-10.1333 -21.73328,-15.59996 -36.93324,-15.59996 -28.6666,0 -49.99988,20.13328 -49.99988,47.99988 0,27.8666 21.33328,47.99988 49.86654,47.99988 z m 112.99962,-31.99992 c 12.66664,-4.93332 19.86662,-15.3333 19.86662,-29.46659 0,-20.66662 -15.19996,-33.19992 -39.73323,-33.19992 h -38.3999 v 93.3331 h 17.33328 v -27.19993 h 21.06662 c 1.19999,0 2.39999,0 3.59999,-0.13334 l 19.06662,27.33327 h 18.66661 z m 2.4,-29.46659 c 0,11.7333 -7.86665,18.66662 -23.06661,18.66662 h -20.26662 v -37.19991 h 20.26662 c 15.19996,0 23.06661,6.79998 23.06661,18.53329 z m 55.13329,60.13318 v -93.3331 h -17.3333 v 93.3331 z m 26.2,-93.3331 v 93.3331 h 17.3333 v -26.93327 h 21.0666 c 24.5333,0 39.7332,-12.66663 39.7332,-33.19991 0,-20.66662 -15.1999,-33.19992 -39.7332,-33.19992 z m 17.3333,51.7332 v -37.06657 h 20.2666 c 15.1999,0 23.0666,6.79998 23.0666,18.53329 0,11.7333 -7.8667,18.53328 -23.0666,18.53328 z m 112.7329,41.5999 v -78.66647 h 30.9333 v -14.66663 h -79.1998 v 14.66663 h 30.9332 v 78.66647 z"
       id="text5"
       style="-inkscape-font-specification:'Montserrat, Semi-Bold';display:inline;fill:url(#linearGradient6)"
       aria-label="SCRIPTIO"
       sodipodi:nodetypes="ssssccssssccssccsssccssscssccccsccccssccsscccccccccssscccssscccccccccc" /><g
       id="g7"
       transform="translate(2)"
       style="fill:#ffff00;fill-opacity:1"><path
         id="path6"
         style="display:inline;fill:#008080;fill-opacity:1;stroke:none;stroke-width:1px;stroke-linecap:butt;stroke-linejoin:miter;stroke-opacity:1"
         d="m 1336.4986,293.69727 c -3.5728,4.25515 -8.8335,8.37283 -15.9628,8.54814 -11.3655,0.27949 -15.1979,-5.0405 -26.5649,-4.82735 -5.86,0.10988 -12.0952,2.98315 -16.8563,5.82112 1.4179,15.85491 13.7289,26.98199 29.931,26.98199 17.2352,0 30.069,-12.59106 30.069,-30.07071 0,-2.23727 -0.2131,-4.39228 -0.616,-6.45319 z" /><path
         d="m 1307.1146,348.73705 c 28.9332,0 50.2665,-20.26662 50.2665,-47.99988 0,-27.73326 -21.3333,-47.99988 -50.2665,-47.99988 -28.9333,0 -50.2666,20.39995 -50.2666,47.99988 0,27.59993 21.3333,47.99988 50.2666,47.99988 z m 0,-15.19996 c -18.8,0 -32.7999,-13.7333 -32.7999,-32.79992 0,-19.06662 13.9999,-32.79992 32.7999,-32.79992 18.7999,0 32.7999,13.7333 32.7999,32.79992 0,19.06662 -14,32.79992 -32.7999,32.79992 z"
         id="path7"
         style="-inkscape-font-specification:'Montserrat, Semi-Bold';display:inline;fill:#ffff00;fill-opacity:1"
         aria-label="SCRIPTIO"
         sodipodi:nodetypes="ssssssssss" /></g><path
       style="display:inline;fill:#ffff00;fill-opacity:1;stroke-width:1"
       d="m 1230.5738,347.74927 -1.3174,-1.0363 v -14.9921 -14.9921 l 1.1113,0.7784 c 0.6112,0.4281 1.6861,0.7783 2.3887,0.7783 0.7027,0 1.7776,-0.3502 2.3887,-0.7783 l 1.1113,-0.7784 v 15.0089 15.0089 l -1.0943,1.0195 c -1.3957,1.3002 -2.921,1.2947 -4.5882,-0.017 z m -7.615,-37.5708 -5.5477,-5.7269 -1.4523,-2.9581 -1.4524,-2.958 v -23.5 -23.5 l 1.5674,-4.3806 c 5.3744,-15.0211 18.3338,-25.018 33.9326,-26.1759 l 4,-0.2969 1.125,1.0712 1.125,1.0712 v 1.3038 c 0,0.7171 -0.6735,3.4063 -1.4966,5.9761 -0.8233,2.5698 -1.87,6.643 -2.3262,9.0517 l -0.8296,4.3794 -0.2988,27.5 -0.2988,27.5 -1.4594,2.9725 -1.4595,2.9726 -5.6498,5.7774 -5.6497,5.7775 -0.016,-28.0924 -0.016,-28.0925 -0.5197,-1.3668 c -1.2927,-3.4001 -3.8892,-3.6029 -7.0912,-0.5538 -0.061,0.058 -0.2297,13.1263 -0.375,29.0405 l -0.2642,28.935 z"
       id="path8" /></g></svg>
